<?xml version="1.0" encoding="utf-8"?>
<!-- Generator: Adobe Illustrator 22.1.0, SVG Export Plug-In . SVG Version: 6.00 Build 0)  -->
<svg version="1.1" id="Layer_1" xmlns="http://www.w3.org/2000/svg" xmlns:xlink="http://www.w3.org/1999/xlink" x="0px" y="0px"
	 viewBox="0 0 500 500" style="enable-background:new 0 0 500 500;" xml:space="preserve">
<style type="text/css">
	.st0{fill:#670B10;}
	.st1{fill:#380C0C;}
	.st2{fill:#ECECEC;}
</style>
<g>
	<g>
		<circle class="st0" cx="250" cy="250" r="245"/>
		<path class="st1" d="M250,22.9c60.6,0,117.7,23.6,160.6,66.5c42.9,42.9,66.5,99.9,66.5,160.6c0,60.6-23.6,117.7-66.5,160.6
			c-42.9,42.9-99.9,66.5-160.6,66.5c-60.6,0-117.7-23.6-160.6-66.5C46.6,367.7,22.9,310.6,22.9,250c0-60.6,23.6-117.7,66.5-160.6
			S189.4,22.9,250,22.9 M250,5C114.7,5,5,114.7,5,250s109.7,245,245,245s245-109.7,245-245S385.3,5,250,5L250,5z"/>
	</g>
	<g>
		<path class="st2" d="M154.1,336.1h-34.2V204.3L79.1,217v-27.8l71.3-25.6h3.7V336.1z"/>
		<path class="st2" d="M293.2,209.7c0,8.4-2.1,15.8-6.3,22.2c-4.2,6.5-9.9,11.6-17.3,15.5c8.4,4,15,9.6,19.9,16.6
			c4.9,7.1,7.3,15.4,7.3,24.9c0,8.2-1.5,15.4-4.4,21.5c-2.9,6.2-7,11.3-12.1,15.5c-5.2,4.2-11.3,7.3-18.4,9.4
			c-7.1,2.1-14.8,3.1-23.2,3.1c-8.3,0-16-1-23.1-3.1c-7.1-2.1-13.3-5.2-18.5-9.4c-5.2-4.2-9.3-9.3-12.2-15.5
			c-3-6.2-4.4-13.3-4.4-21.5c0-9.5,2.4-17.9,7.3-25c4.9-7.1,11.5-12.6,19.8-16.6c-7.3-3.9-13.1-9-17.2-15.5
			c-4.1-6.5-6.2-13.9-6.2-22.2c0-7.8,1.4-14.7,4.1-20.6c2.7-6,6.5-11,11.3-15.1c4.8-4.1,10.5-7.2,17.2-9.3c6.7-2.1,14-3.1,21.9-3.1
			c8,0,15.3,1,21.9,3.1c6.7,2.1,12.4,5.2,17.3,9.3c4.8,4.1,8.6,9.1,11.3,15.1C291.9,195,293.2,201.9,293.2,209.7z M262.6,286.4
			c0-3.8-0.6-7.2-1.7-10.3c-1.1-3.1-2.8-5.7-4.9-7.8c-2.1-2.1-4.6-3.8-7.6-4.9c-3-1.1-6.3-1.7-9.9-1.7c-3.6,0-6.9,0.6-9.8,1.7
			c-2.9,1.1-5.4,2.8-7.5,4.9c-2.1,2.1-3.7,4.7-4.8,7.8c-1.1,3.1-1.7,6.5-1.7,10.3s0.6,7.2,1.7,10.2c1.1,3,2.8,5.6,4.8,7.7
			c2.1,2.1,4.6,3.7,7.6,4.9c3,1.1,6.3,1.7,10,1.7c7.4,0,13.2-2.2,17.4-6.5C260.5,300.1,262.6,294.1,262.6,286.4z M259,211.3
			c0-6.7-1.8-12.1-5.3-16.1c-3.5-4.1-8.6-6.1-15-6.1c-6.4,0-11.4,2-14.9,5.9c-3.5,3.9-5.3,9.4-5.3,16.3c0,6.9,1.8,12.4,5.3,16.6
			c3.5,4.2,8.6,6.3,15,6.3c6.5,0,11.5-2.1,15-6.3C257.3,223.7,259,218.2,259,211.3z"/>
		<path class="st2" d="M378.2,239.7h42.7v30.9h-42.7v48.3h-32.5v-48.3h-42.8v-30.9h42.8v-46.3h32.5V239.7z"/>
	</g>
</g>
</svg>
